<?xml version="1.0" standalone="no"?>
<!DOCTYPE svg PUBLIC "-//W3C//DTD SVG 20010904//EN"
 "http://www.w3.org/TR/2001/REC-SVG-20010904/DTD/svg10.dtd">
<svg version="1.0" xmlns="http://www.w3.org/2000/svg"
 width="100.000000pt" height="100.000000pt" viewBox="0 0 100.000000 100.000000"
 preserveAspectRatio="xMidYMid meet">

<g transform="translate(0.000000,100.000000) scale(0.100000,-0.100000)"
fill="#000000" stroke="none">
<path d="M89 685 c0 -3 -1 -26 -1 -52 l0 -48 38 1 c59 2 82 46 44 84 -17 17
-79 29 -81 15z m72 -31 c18 -21 0 -48 -35 -52 -24 -3 -26 0 -26 32 0 31 3 36
24 36 13 0 29 -7 37 -16z"/>
<path d="M298 668 c-9 -27 7 -83 25 -86 9 -2 17 1 17 7 0 6 -4 11 -10 11 -5 0
-10 11 -10 25 0 14 5 25 11 25 6 0 4 7 -5 15 -18 18 -23 19 -28 3z"/>
<path d="M210 652 c0 -6 9 -8 20 -5 11 3 20 0 20 -6 0 -6 -9 -11 -20 -11 -20
0 -38 -25 -26 -37 3 -3 20 -7 36 -8 30 -2 31 0 28 34 -3 31 -7 36 -30 39 -16
2 -28 -1 -28 -6z m40 -42 c0 -5 -7 -10 -15 -10 -8 0 -15 5 -15 10 0 6 7 10 15
10 8 0 15 -4 15 -10z"/>
<path d="M360 652 c0 -6 8 -8 19 -5 10 3 22 0 25 -6 5 -7 -2 -11 -17 -11 -28
0 -42 -23 -23 -39 6 -5 22 -9 34 -8 20 1 23 6 20 37 -3 30 -7 35 -30 38 -16 2
-28 -1 -28 -6z m50 -42 c0 -5 -9 -10 -21 -10 -11 0 -17 5 -14 10 3 6 13 10 21
10 8 0 14 -4 14 -10z"/>
<path d="M260 559 c0 -5 5 -7 10 -4 6 3 10 8 10 11 0 2 -4 4 -10 4 -5 0 -10
-5 -10 -11z"/>
<path d="M360 549 c0 -11 -5 -17 -10 -14 -15 9 -47 -3 -54 -21 -11 -29 12 -54
49 -54 l35 0 0 55 c0 30 -4 55 -10 55 -5 0 -10 -9 -10 -21z m-5 -53 c0 -22
-14 -29 -34 -17 -19 12 -6 43 16 39 10 -2 18 -12 18 -22z"/>
<path d="M750 560 c0 -5 5 -10 10 -10 6 0 10 5 10 10 0 6 -4 10 -10 10 -5 0
-10 -4 -10 -10z"/>
<path d="M85 510 l0 -50 36 0 c39 0 66 21 53 42 -5 7 -8 22 -9 33 0 16 -8 21
-40 23 l-40 3 0 -51z m63 23 c2 -8 -6 -13 -22 -13 -17 0 -26 5 -26 16 0 19 41
16 48 -3z m10 -45 c-3 -7 -15 -13 -28 -13 -13 0 -25 6 -27 13 -3 8 6 12 27 12
21 0 30 -4 28 -12z"/>
<path d="M652 514 c-13 -26 -20 -49 -16 -53 4 -3 9 0 11 7 6 14 59 16 68 2 3
-5 10 -10 16 -10 5 0 -2 23 -16 50 -14 28 -29 50 -33 50 -4 0 -18 -21 -30 -46z
m48 -6 c0 -5 -9 -8 -20 -8 -18 0 -19 3 -9 21 9 17 13 19 20 8 5 -8 9 -17 9
-21z"/>
<path d="M201 495 c2 -31 3 -34 6 -12 3 16 11 31 19 34 21 8 17 19 -6 19 -17
0 -20 -6 -19 -41z"/>
<path d="M260 501 c0 -23 5 -41 10 -41 6 0 10 15 10 34 0 19 -4 38 -10 41 -6
4 -10 -10 -10 -34z"/>
<path d="M411 527 c-26 -26 1 -76 35 -63 10 4 14 2 11 -6 -2 -7 -16 -12 -31
-10 -18 2 -25 -1 -21 -7 8 -15 48 -14 63 1 7 7 12 30 12 53 0 37 -2 40 -29 42
-15 1 -33 -3 -40 -10z m49 -27 c0 -13 -7 -20 -19 -20 -22 0 -35 15 -26 30 12
19 45 11 45 -10z"/>
<path d="M512 528 c-27 -27 -6 -68 35 -68 13 0 23 4 23 9 0 5 -8 7 -19 4 -10
-3 -22 0 -25 6 -5 7 4 11 23 11 19 0 31 5 31 13 0 18 -21 37 -40 37 -9 0 -21
-5 -28 -12z m48 -18 c0 -5 -9 -10 -20 -10 -11 0 -20 5 -20 10 0 6 9 10 20 10
11 0 20 -4 20 -10z"/>
<path d="M750 500 c0 -22 5 -40 10 -40 6 0 10 18 10 40 0 22 -4 40 -10 40 -5
0 -10 -18 -10 -40z"/>
</g>
</svg>
